HIERARCHY
ROOT Hips
{
  OFFSET -35.2597 29.1586 114.425
  CHANNELS 6 Xposition Yposition Zposition Zrotation Xrotation Yrotation
  JOINT LeftUpLeg
  {
    OFFSET 8.64259 1.95398 -2.38835
    CHANNELS 3 Zrotation Xrotation Yrotation
    JOINT LeftLeg
    {
      OFFSET 43.7702 0 0
      CHANNELS 3 Zrotation Xrotation Yrotation
      JOINT LeftFoot
      {
        OFFSET 40.6238 0 0
        CHANNELS 3 Zrotation Xrotation Yrotation
        JOINT LeftToeBase
        {
          OFFSET 12.7242 0 0
          CHANNELS 3 Zrotation Xrotation Yrotation
          End Site
          {
            OFFSET 0 0 0
          }
        }
      }
    }
  }
  JOINT RightUpLeg
  {
    OFFSET -8.2249 1.95398 -2.59336
    CHANNELS 3 Zrotation Xrotation Yrotation
    JOINT RightLeg
    {
      OFFSET 43.5653 0 0
      CHANNELS 3 Zrotation Xrotation Yrotation
      JOINT RightFoot
      {
        OFFSET 40.6238 0 0
        CHANNELS 3 Zrotation Xrotation Yrotation
        JOINT RightToeBase
        {
          OFFSET 12.7242 0 0
          CHANNELS 3 Zrotation Xrotation Yrotation
          End Site
          {
            OFFSET 0 0 0
          }
        }
      }
    }
  }
  JOINT Spine
  {
    OFFSET 0.165834 0.87714 6.61349
    CHANNELS 3 Zrotation Xrotation Yrotation
    JOINT Spine1
    {
      OFFSET 7.38963 1.71661e-005 0
      CHANNELS 3 Zrotation Xrotation Yrotation
      JOINT Spine2
      {
        OFFSET 11.9445 1.14441e-005 0
        CHANNELS 3 Zrotation Xrotation Yrotation
        JOINT Spine3
        {
          OFFSET 14.7254 4.19617e-005 0
          CHANNELS 3 Zrotation Xrotation Yrotation
          JOINT Spine4
          {
            OFFSET 10.9679 0 0
            CHANNELS 3 Zrotation Xrotation Yrotation
            JOINT RightShoulder
            {
              OFFSET 2.46616 -1.6653 3.69651
              CHANNELS 3 Zrotation Xrotation Yrotation
              JOINT RightArm
              {
                OFFSET 13.0012 0 0
                CHANNELS 3 Zrotation Xrotation Yrotation
                JOINT RightForeArm
                {
                  OFFSET 28.7848 1.62311e-005 0
                  CHANNELS 3 Zrotation Xrotation Yrotation
                  JOINT RightHand
                  {
                    OFFSET 26.5688 1.62095e-005 0
                    CHANNELS 3 Zrotation Xrotation Yrotation
                    End Site
                    {
                      OFFSET 0 0 0
                    }
                  }
                }
              }
            }
            JOINT LeftShoulder
            {
              OFFSET 2.38034 -1.29275 -3.7523
              CHANNELS 3 Zrotation Xrotation Yrotation
              JOINT LeftArm
              {
                OFFSET 16.3182 6.07031e-005 0
                CHANNELS 3 Zrotation Xrotation Yrotation
                JOINT LeftForeArm
                {
                  OFFSET 27.0901 0 0
                  CHANNELS 3 Zrotation Xrotation Yrotation
                  JOINT LeftHand
                  {
                    OFFSET 24.5451 1.51738e-005 0
                    CHANNELS 3 Zrotation Xrotation Yrotation
                    End Site
                    {
                      OFFSET 0 0 0
                    }
                  }
                }
              }
            }
            JOINT Neck
            {
              OFFSET 5.0226 -0.0266342 0
              CHANNELS 3 Zrotation Xrotation Yrotation
              JOINT Head
              {
                OFFSET 6.69364 2.86102e-005 0
                CHANNELS 3 Zrotation Xrotation Yrotation
                End Site
                {
                  OFFSET 0 0 0
                }
              }
            }
          }
        }
      }
    }
  }
}
MOTION
Frames:	14
Frame Time:	0.0416667
-309.093 85.5649 -268.789 85.955 4.68778 94.8469 -171.505 3.56228 109.363 -44.664 43.6971 8.55469 99.5501 28.8806 -2.52615 32.5002 -0.859779 5.96043 159.255 52.3219 84.7654 -101.108 -16.6197 -1.24114 87.7406 -26.82 -11.2964 15.1047 8.85751 -6.04866 -4.65971 4.9079 -89.6816 17.2143 -9.01135 2.2504 5.57214 -8.90353 2.6477 -17.2166 -9.26753 -0.585454 2.796 -9.26754 -0.585464 113.01 -1.44141 -42.5933 0.986115 30.7507 46.2972 156.324 14.6157 -127.821 -15.0415 16.0771 -101.47 -60.7307 -56.2785 121.116 3.94307 60.6723 -16.0453 -82.9942 17.0712 -94.0499 -86.4026 -16.3101 13.6105 -7.80307 25.3896 11.6405 102.181 22.023 3.32862 
-305.147 89.5005 -265.716 84.7226 -2.66877 96.0636 -164.217 -6.67849 112.171 -20.0613 43.4317 3.45638 83.3864 19.9513 1.18069 40.9118 3.07297 7.61306 165.647 45.4507 92.7059 -95.7379 -9.80443 -0.764749 87.7093 -23.6268 -12.1024 17.2369 7.41399 -5.3523 -3.98414 4.87086 -90.4044 17.2077 -8.05336 0.614454 5.56154 -8.0185 0.970604 -17.1687 -7.86328 -1.84984 2.84396 -7.86326 -1.84984 111.252 0.981159 -46.143 -0.807806 28.6179 39.6383 154.771 23.2616 -137.913 -16.7018 16.5466 -96.9313 -61.5013 -55.7902 120.168 10.2367 46.2868 -40.4478 24.3754 -8.64079 -107.478 3.12202 9.29802 -100.065 -10.0704 26.3301 14.5388 97.9911 21.9644 2.40614 
-301.174 90.6295 -262.277 83.6391 -13.6275 95.7847 -159.705 -14.8912 111.947 -6.7423 36.2478 0.555622 70.5637 11.9379 2.284 51.0986 8.42577 7.59558 170.089 43.343 99.763 -95.4271 -2.66996 -2.06771 87.2066 -19.0449 -10.5118 20.2378 4.41153 -1.69379 -2.99248 4.97523 -91.28 16.9138 -6.55317 -1.45111 5.25897 -6.61065 -1.16009 -17.3799 -5.81325 -3.35919 2.63273 -5.81324 -3.35918 109.666 3.66162 -49.4023 -1.90468 24.9134 25.4187 170.138 18.999 -164.85 -11.8628 10.7785 -90.364 -62.414 -55.023 119.07 27.9583 23.8979 -10.7329 26.3104 -29.2941 -136.963 37.0475 -21.4093 -58.2373 -11.5183 25.0585 21.9603 90.7095 16.526 -1.47595 
-296.616 91.0208 -258.752 81.2386 -25.3471 93.8256 -162.367 -17.6818 106.435 -8.54245 26.3595 0.373827 59.8852 4.43588 4.77455 60.311 13.1031 6.74918 179.127 50.2156 99.9949 -92.3036 2.36216 -3.71884 84.4587 -14.6402 -6.7311 18.3888 2.32408 5.39389 -1.96359 4.99196 -92.1452 16.8153 -4.96848 -3.4799 5.14981 -5.11675 -3.25767 -17.395 -3.6941 -4.81151 2.61763 -3.69409 -4.81151 107.8 8.04182 -52.6037 1.179 20.2939 15.5235 175.684 13.6898 179.291 -2.777 0.725697 -88.949 -63.5966 -51.1759 118.213 18.6204 20.9361 -20.4704 27.9421 -25.3014 -130.722 28.7933 -17.7308 -62.6394 -10.4745 21.1634 34.6062 75.0758 4.39179 -13.5647 
-291.074 91.6283 -254.752 76.3027 -34.9544 90.0412 -168.752 -18.9473 98.3192 -8.78457 13.6129 1.69325 50.8035 -3.3097 2.19846 44.7474 6.94261 1.62101 -170.363 57.8585 95.7949 -83.6989 -1.19927 -5.55164 82.5271 -13.8872 -5.73232 17.3493 2.51893 5.97863 -1.1555 4.72953 -92.7393 17.3148 -3.68893 -4.88439 5.64056 -3.90009 -4.71766 -16.8373 -2.05325 -5.76463 3.17538 -2.05327 -5.76464 105.936 13.0271 -56.5285 5.84618 19.0034 21.2721 175.833 6.16223 -179.998 20.7932 -33.6195 -120.974 -66.5661 -34.8506 117.554 13.3879 18.5722 -37.9011 27.0904 -18.5981 -123.423 31.9589 -17.3555 -56.7272 -2.844 19.0376 45.1799 41.1277 -1.01074 -33.7137 
-284.878 92.3914 -250.032 71.9267 -40.3055 88.7359 -172.115 -19.7147 94.7736 -8.1809 7.48086 3.62997 47.899 -6.30544 0.640047 14.9579 -7.28022 0.0957071 -167.653 61.115 96.411 -72.5736 -8.10926 -6.32203 79.9573 -13.1724 -6.89597 17.4418 2.30752 6.40752 -0.788989 4.59665 -93.4233 17.5503 -3.3269 -6.33125 5.8689 -3.60181 -6.17943 -16.5503 -1.27569 -7.03483 3.4623 -1.27569 -7.03483 104.407 17.7344 -60.9134 0.101622 18.3163 30.7284 -7.18528 -64.2115 -6.97243 156.146 3.98771 -3.08876 -72.4878 -12.4584 110.581 3.03183 14.3089 -50.9931 27.7796 -11.9106 -112.35 41.3888 -17.3445 -45.8327 14.7403 24.3298 46.8307 -3.00014 11.3902 -40.5419 
-278.506 92.6789 -245.227 70.3971 -42.1992 89.0888 -172.027 -21.9372 94.35 -8.78259 2.84586 3.46024 50.4761 -3.89969 -0.596099 12.2764 -12.8934 5.65816 -169.75 60.8059 98.3233 -61.1173 -13.5034 -5.68552 78.3455 -12.3327 -5.84066 18.0767 1.62097 7.53251 -0.869723 4.66699 -93.9593 17.3592 -3.75684 -7.3426 5.67391 -4.07552 -7.17128 -16.7039 -1.38477 -8.12685 3.3087 -1.38476 -8.12685 103.68 19.1685 -66.0786 -0.297042 17.5224 35.6578 -4.76727 -33.517 -5.17496 155.482 30.8306 1.38361 -75.473 -10.1218 103.447 -4.14753 12.4775 -48.7292 31.3623 -8.48669 -105.062 35.6602 -16.8068 -50.6001 30.755 28.4296 39.2261 -32.549 18.8384 -27.1847 
-272.525 92.6237 -240.446 70.0195 -43.3662 88.3131 -171.711 -22.3613 93.0769 -15.0817 0.968659 1.50946 52.0678 -2.74627 -0.519373 14.9667 -9.61913 3.35801 -172.698 58.9987 99.265 -50.5134 -19.2076 -4.32322 77.7032 -12.091 -4.5835 17.3048 2.14624 6.93718 -0.880256 4.9692 -93.9884 16.7552 -3.77499 -7.41398 5.06951 -4.09678 -7.24182 -17.3052 -1.38082 -8.20026 2.7074 -1.38082 -8.20027 103.458 16.0445 -71.8335 1.86285 16.5712 41.6506 -4.52051 -28.5712 -5.07159 159.818 28.836 0.0157958 -81.1854 -9.29517 86.8393 -13.9697 7.49508 -48.4079 43.6309 0.343049 -89.7339 44.1543 -22.9014 -54.4436 36.0789 25.8664 30.9945 -40.247 15.6484 -14.8012 
-266.733 92.4324 -235.741 70.5568 -44.1148 87.6025 -170.75 -20.6873 91.8462 -26.2389 3.75922 -0.346519 51.0103 -4.24485 -1.11526 6.83919 -7.20845 -6.23458 -176.133 55.6953 100.03 -40.0109 -24.3369 -2.11499 74.6848 -10.5147 -5.02927 20.1348 1.14267 6.8044 -0.960112 5.32483 -93.8039 16.0548 -3.81888 -7.05378 4.37129 -4.1249 -6.87991 -18.0211 -1.52991 -7.8702 1.99158 -1.52991 -7.8702 103.184 10.6194 -76.4015 6.18286 16.3491 44.4876 -4.45327 -27.2058 -5.0458 160.884 21.6172 -1.52434 -86.3308 -16.7923 76.2851 -17.8123 4.08013 -43.191 49.6621 5.96243 -85.9133 33.2573 -21.5504 -65.4388 31.599 23.2231 29.6754 -33.72 13.1872 -11.4859 
-260.975 92.24 -231.017 72.2316 -44.9456 87.6504 -168.894 -17.9098 91.098 -40.6662 10.365 -2.10653 50.1531 -5.97407 -0.272922 6.15675 -2.29942 -13.202 -179.554 51.3025 100.947 -32.0422 -22.7143 0.688655 73.8817 -9.49084 -2.6659 21.1157 1.11671 5.88888 -1.04472 5.85108 -93.5275 15.0186 -3.81962 -6.52729 3.33774 -4.10259 -6.35369 -19.0782 -1.68745 -7.36885 0.934418 -1.68745 -7.36886 102.574 2.85108 -80.6176 13.1837 16.7341 43.2852 -4.52787 -28.6923 -5.07354 162.212 7.21579 -4.00554 -86.7112 -19.7379 76.5068 -17.9878 5.83294 -39.5692 45.372 4.79257 -86.1414 19.8577 -13.9502 -67.2998 24.3194 20.2921 29.315 -22.2316 11.0513 -9.53366 
-255.332 91.9254 -226.289 74.7018 -45.8299 88.4765 -165.893 -14.4972 91.2742 -55.5386 19.1527 -3.68019 50.3179 -6.7965 2.00736 13.1105 -4.84792 -5.12583 177.608 46.4174 101.701 -27.708 -15.0773 3.10538 73.2406 -8.63186 -1.12327 21.1311 1.20281 5.63809 -1.10642 6.55304 -93.142 13.6409 -3.71917 -5.80626 1.96306 -3.9707 -5.63755 -20.4816 -1.80663 -6.65192 -0.469017 -1.80661 -6.65191 101.443 -5.32433 -84.2243 22.2058 16.9297 37.1082 -4.24803 -22.9727 -4.9995 163.415 -2.5939 -5.54342 -87.7883 -23.3487 75.4294 -18.6392 8.58817 -30.5918 42.0285 2.41688 -88.0096 17.9234 -11.2934 -62.1685 22.8522 18.6384 26.0057 -15.1899 10.2224 -7.62543 
-249.748 91.5663 -221.595 78.0241 -46.1947 89.6464 -162.193 -10.7522 91.9005 -70.6511 21.6941 -3.83789 48.1276 -8.58429 3.20922 9.43168 -4.13476 -8.81887 175.128 42.1908 100.902 -28.5543 -5.47251 4.85166 71.827 -6.57147 2.39541 23.3107 0.433718 5.4827 -1.23339 7.32982 -92.684 12.1096 -3.71978 -4.94518 0.435166 -3.93357 -4.77705 -22.041 -2.0645 -5.83179 -2.02838 -2.06451 -5.8318 99.4243 -15.2782 -89.4625 29.2847 15.8362 25.0394 -5.49575 -44.7514 -5.52857 162.92 -37.9871 -10.5791 -88.4691 -29.0559 75.9433 -19.4629 9.74451 -26.1147 44.7934 2.47858 -88.3533 15.8872 -10.1842 -62.0025 24.5396 17.6753 21.342 -11.4467 10.0403 -4.855 
-244.328 90.9477 -216.721 80.4662 -46.7417 91.0865 -157.561 -5.71634 93.6878 -85.8978 15.6324 -2.26999 48.2546 -8.22423 2.8247 -3.70268 1.45268 -22.7686 174.065 37.0694 101.26 -26.0732 -15.6116 5.77452 62.6504 -2.24287 -14.8848 23.7834 1.33311 2.34391 -1.29803 7.95859 -92.3403 10.8692 -3.66547 -4.31165 -0.803146 -3.85156 -4.14636 -23.2991 -2.20223 -5.21194 -3.28644 -2.20223 -5.21195 96.5157 -24.1797 -94.8362 30.709 14.4543 12.5187 -4.92564 -36.0709 -5.24597 162.72 -45.493 -12.1123 -88.5836 -35.9998 77.7216 -20.1008 9.20057 -21.8347 49.1195 2.09348 -89.2385 9.0505 -6.5492 -63.2322 24.8711 17.1745 18.9488 -6.86559 10.1212 -4.42416 
-239.349 90.6008 -212.027 80.2811 -48.5683 90.4515 -151.407 2.05717 93.9736 -99.5853 6.396 -0.0729514 49.1738 -6.63169 2.55455 -16.503 6.69698 -32.3857 172.916 38.1576 101.782 -35.4083 -18.3658 5.94428 63.503 -2.68878 -16.5283 8.74539 6.66932 4.52126 -1.1393 8.31245 -91.9766 10.1836 -3.17159 -3.6562 -1.48824 -3.32935 -3.51321 -23.9959 -1.9274 -4.43913 -3.98324 -1.92739 -4.43913 93.0356 -32.5001 -99.9929 30.0385 21.0372 9.0284 -91.8837 -67.7432 -88.5878 26.9455 -53.4355 -142.74 -87.423 -39.1763 80.51 -21.9466 10.9811 -16.8911 46.6453 3.33538 -87.6271 5.32077 -4.50279 -63.9805 25.1796 16.199 13.9334 -3.07614 10.6659 -0.322022 
